<svg xmlns="http://www.w3.org/2000/svg" xmlns:xlink="http://www.w3.org/1999/xlink" width="480" zoomAndPan="magnify" viewBox="0 0 360 89.999999" height="120" preserveAspectRatio="xMidYMid meet" version="1.0"><defs><g/><clipPath id="a8df70dfc9"><path d="M 93 11 L 140 11 L 140 60 L 93 60 Z M 93 11 " clip-rule="nonzero"/></clipPath><clipPath id="4c2230da04"><path d="M 63.921875 31.054688 L 108.035156 5.457031 L 139.28125 59.296875 L 95.167969 84.894531 Z M 63.921875 31.054688 " clip-rule="nonzero"/></clipPath><clipPath id="b5779d9e95"><path d="M 63.921875 31.054688 L 108.035156 5.457031 L 139.28125 59.296875 L 95.167969 84.894531 Z M 63.921875 31.054688 " clip-rule="nonzero"/></clipPath><clipPath id="4c71b1aede"><path d="M 63 30 L 110 30 L 110 79 L 63 79 Z M 63 30 " clip-rule="nonzero"/></clipPath><clipPath id="672fe04444"><path d="M 63.921875 31.054688 L 108.035156 5.457031 L 139.28125 59.296875 L 95.167969 84.894531 Z M 63.921875 31.054688 " clip-rule="nonzero"/></clipPath><clipPath id="2117472e94"><path d="M 63.921875 31.054688 L 108.035156 5.457031 L 139.28125 59.296875 L 95.167969 84.894531 Z M 63.921875 31.054688 " clip-rule="nonzero"/></clipPath><clipPath id="a40b49bc44"><path d="M 233.371094 21.03125 L 279.871094 21.03125 L 279.871094 66.78125 L 233.371094 66.78125 Z M 233.371094 21.03125 " clip-rule="nonzero"/></clipPath></defs><path stroke-linecap="butt" transform="matrix(0.375471, 0, 0, 0.375471, 10.78534, 17.923192)" fill="none" stroke-linejoin="miter" d="M 121.971457 15.164959 C 126.424203 15.164959 129.44125 16.590254 131.022599 19.43044 C 132.458298 21.927307 133.165743 26.223998 133.165743 32.351726 L 133.165743 120.480722 C 133.165743 122.51983 132.676773 123.809878 131.709237 124.350866 C 130.731298 124.871047 129.93022 125.131137 129.2956 125.131137 L 117.841223 125.131137 C 117.300235 125.131137 116.540771 124.871047 115.562832 124.350866 C 114.584892 123.809878 114.095922 122.51983 114.095922 120.480722 L 114.095922 40.352103 C 114.095922 40.268874 114.095922 40.206453 114.095922 40.154435 C 114.095922 40.11282 114.095922 40.092013 114.095922 40.092013 L 113.450899 40.092013 C 113.25323 40.092013 113.159597 40.175242 113.159597 40.352103 L 90.24044 96.88533 C 89.356133 99.642288 88.419808 102.035118 87.441869 104.074226 C 86.994513 105.052166 86.474333 105.936473 85.881327 106.747955 C 85.319532 107.549033 84.778544 108.298093 84.258363 108.984731 C 82.916298 110.42043 81.491003 111.408773 79.992883 111.949761 C 78.557184 112.469941 76.778166 112.730031 74.65583 112.730031 L 69.18353 112.730031 C 67.238054 112.730031 65.459037 112.469941 63.846477 111.949761 C 63.045399 111.668863 62.306742 111.263122 61.640911 110.742942 C 60.985484 110.201954 60.298845 109.619352 59.5914 108.984731 C 58.436599 107.580244 57.37543 105.936473 56.397491 104.074226 C 55.513184 102.035118 54.576859 99.642288 53.598919 96.88533 L 30.783798 40.48735 C 30.700569 40.22726 30.565322 40.092013 30.398864 40.092013 L 29.712226 40.092013 C 29.712226 40.092013 29.712226 40.11282 29.712226 40.154435 C 29.712226 40.206453 29.712226 40.268874 29.712226 40.352103 L 29.712226 120.480722 C 29.712226 122.51983 29.244064 123.809878 28.318142 124.350866 C 27.381817 124.871047 26.61195 125.131137 25.998137 125.131137 L 14.512549 125.131137 C 13.90914 125.131137 13.118465 124.871047 12.140526 124.350866 C 11.162586 123.809878 10.673616 122.51983 10.673616 120.480722 L 10.673616 32.351726 C 10.673616 26.223998 11.381062 21.927307 12.785549 19.43044 C 14.398109 16.590254 17.467175 15.164959 22.00315 15.164959 L 34.269008 15.164959 C 36.224887 15.164959 37.775025 15.34182 38.919423 15.685139 C 40.43835 16.142898 41.686783 16.808729 42.664723 17.70344 C 43.101675 18.223621 43.559434 18.795819 44.027596 19.43044 C 44.526969 20.054656 44.963921 20.772506 45.338451 21.573584 C 45.68177 22.353855 46.045897 23.269372 46.441234 24.309734 C 46.857379 25.329288 47.231909 26.452878 47.575228 27.690908 L 71.045776 86.596158 C 71.129005 86.877056 71.212234 87.043514 71.305867 87.085128 C 71.389096 87.126743 71.43071 87.14755 71.43071 87.14755 L 72.772776 87.14755 C 72.960041 87.14755 73.105691 86.970688 73.18892 86.596158 L 96.784312 27.690908 C 97.221264 26.452878 97.606198 25.329288 97.95992 24.309734 C 98.324047 23.269372 98.688173 22.353855 99.031492 21.573584 C 99.489251 20.772506 99.936607 20.054656 100.363155 19.43044 C 100.820914 18.795819 101.268269 18.223621 101.694817 17.70344 C 102.766389 16.725501 103.962804 16.049266 105.315274 15.685139 C 106.459671 15.34182 108.00981 15.164959 109.965689 15.164959 Z M 121.971457 15.164959 " stroke="#ffffff" stroke-width="2.499506" stroke-opacity="1" stroke-miterlimit="4"/><g fill="#ffffff" fill-opacity="1"><g transform="translate(10.78534, 64.857012)"><g><path d="M 45.796875 -41.234375 C 47.460938 -41.234375 48.597656 -40.703125 49.203125 -39.640625 C 49.734375 -38.703125 50 -37.082031 50 -34.78125 L 50 -1.703125 C 50 -0.929688 49.8125 -0.445312 49.4375 -0.25 C 49.070312 -0.0507812 48.773438 0.046875 48.546875 0.046875 L 44.234375 0.046875 C 44.035156 0.046875 43.753906 -0.0507812 43.390625 -0.25 C 43.023438 -0.445312 42.84375 -0.929688 42.84375 -1.703125 L 42.84375 -31.78125 C 42.84375 -31.8125 42.84375 -31.832031 42.84375 -31.84375 C 42.84375 -31.863281 42.84375 -31.875 42.84375 -31.875 L 42.59375 -31.875 C 42.519531 -31.875 42.484375 -31.84375 42.484375 -31.78125 L 33.875 -10.5625 C 33.539062 -9.53125 33.191406 -8.628906 32.828125 -7.859375 C 32.660156 -7.492188 32.46875 -7.160156 32.25 -6.859375 C 32.039062 -6.554688 31.832031 -6.269531 31.625 -6 C 31.125 -5.46875 30.59375 -5.101562 30.03125 -4.90625 C 29.5 -4.707031 28.832031 -4.609375 28.03125 -4.609375 L 25.96875 -4.609375 C 25.238281 -4.609375 24.570312 -4.707031 23.96875 -4.90625 C 23.664062 -5.007812 23.390625 -5.160156 23.140625 -5.359375 C 22.890625 -5.554688 22.632812 -5.769531 22.375 -6 C 21.9375 -6.539062 21.535156 -7.160156 21.171875 -7.859375 C 20.835938 -8.628906 20.488281 -9.53125 20.125 -10.5625 L 11.5625 -31.734375 C 11.53125 -31.828125 11.476562 -31.875 11.40625 -31.875 L 11.15625 -31.875 C 11.15625 -31.875 11.15625 -31.863281 11.15625 -31.84375 C 11.15625 -31.832031 11.15625 -31.8125 11.15625 -31.78125 L 11.15625 -1.703125 C 11.15625 -0.929688 10.976562 -0.445312 10.625 -0.25 C 10.28125 -0.0507812 9.992188 0.046875 9.765625 0.046875 L 5.453125 0.046875 C 5.222656 0.046875 4.921875 -0.0507812 4.546875 -0.25 C 4.179688 -0.445312 4 -0.929688 4 -1.703125 L 4 -34.78125 C 4 -37.082031 4.265625 -38.703125 4.796875 -39.640625 C 5.398438 -40.703125 6.550781 -41.234375 8.25 -41.234375 L 12.859375 -41.234375 C 13.597656 -41.234375 14.179688 -41.164062 14.609375 -41.03125 C 15.179688 -40.863281 15.648438 -40.613281 16.015625 -40.28125 C 16.179688 -40.082031 16.351562 -39.863281 16.53125 -39.625 C 16.71875 -39.394531 16.878906 -39.132812 17.015625 -38.84375 C 17.148438 -38.539062 17.289062 -38.195312 17.4375 -37.8125 C 17.59375 -37.425781 17.734375 -37 17.859375 -36.53125 L 26.671875 -14.40625 C 26.703125 -14.3125 26.734375 -14.253906 26.765625 -14.234375 C 26.804688 -14.222656 26.828125 -14.21875 26.828125 -14.21875 L 27.328125 -14.21875 C 27.390625 -14.21875 27.4375 -14.28125 27.46875 -14.40625 L 36.328125 -36.53125 C 36.492188 -37 36.644531 -37.425781 36.78125 -37.8125 C 36.914062 -38.195312 37.050781 -38.539062 37.1875 -38.84375 C 37.351562 -39.132812 37.519531 -39.394531 37.6875 -39.625 C 37.851562 -39.863281 38.019531 -40.082031 38.1875 -40.28125 C 38.582031 -40.65625 39.03125 -40.90625 39.53125 -41.03125 C 39.96875 -41.164062 40.550781 -41.234375 41.28125 -41.234375 Z M 45.796875 -41.234375 "/></g></g></g><path stroke-linecap="butt" transform="matrix(0.375471, 0, 0, 0.375471, 138.647061, 17.924243)" fill="none" stroke-linejoin="miter" d="M 101.594936 47.007616 L 101.594936 47.787887 C 101.594936 47.704658 101.594936 47.631833 101.594936 47.590218 C 101.594936 47.548604 101.594936 47.486182 101.594936 47.402953 C 101.594936 47.309321 101.594936 47.246899 101.594936 47.205284 C 101.594936 47.16367 101.594936 47.090845 101.594936 47.007616 Z M 104.133418 119.271104 C 104.674405 119.988954 104.851267 121.050122 104.653598 122.465013 C 104.393508 124.244031 103.373954 125.128338 101.594936 125.128338 L 86.946651 125.128338 C 85.771043 125.128338 84.834718 124.868248 84.148079 124.348067 C 83.867182 124.150398 83.617495 123.879904 83.399019 123.536585 C 83.180543 123.182862 82.94126 122.82914 82.68117 122.465013 L 58.523983 79.65415 L 30.40302 79.65415 L 30.40302 120.477923 C 30.40302 122.517031 29.934857 123.807079 28.998532 124.348067 C 28.072611 124.868248 27.29234 125.128338 26.65772 125.128338 L 14.516704 125.128338 C 13.913295 125.128338 13.12262 124.868248 12.144681 124.348067 C 11.166741 123.807079 10.677772 122.517031 10.677772 120.477923 L 10.677772 64.454473 C 10.677772 62.415365 11.166741 61.156528 12.144681 60.677962 C 13.12262 60.178589 13.913295 59.928902 14.516704 59.928902 L 72.527245 59.928902 C 75.908419 59.928902 78.259635 58.950962 79.591297 57.005487 C 81.016592 55.049608 81.734441 51.845295 81.734441 47.402953 C 81.734441 42.950207 81.016592 39.745895 79.591297 37.790016 C 78.259635 35.84454 75.908419 34.866601 72.527245 34.866601 L 14.516704 34.866601 C 13.913295 34.866601 13.12262 34.627318 12.144681 34.148752 C 11.166741 33.649378 10.677772 32.380137 10.677772 30.34103 L 10.677772 19.791767 C 10.677772 17.66943 11.166741 16.368979 12.144681 15.890413 C 13.12262 15.391039 13.913295 15.141353 14.516704 15.141353 L 76.002051 15.141353 C 85.167633 15.141353 91.742716 17.981539 95.737703 23.672314 C 99.555828 29.175825 101.501304 37.092974 101.594936 47.402953 C 101.501304 57.702529 99.555828 65.619678 95.737703 71.123188 C 92.346125 75.752796 87.362795 78.457735 80.787712 79.269216 Z M 104.133418 119.271104 " stroke="#ffffff" stroke-width="2.500031" stroke-opacity="1" stroke-miterlimit="4"/><g fill="#ffffff" fill-opacity="1"><g transform="translate(138.647061, 64.858063)"><g><path d="M 38.140625 -29.28125 L 38.140625 -28.984375 C 38.140625 -29.015625 38.140625 -29.039062 38.140625 -29.0625 C 38.140625 -29.082031 38.140625 -29.109375 38.140625 -29.140625 C 38.140625 -29.171875 38.140625 -29.191406 38.140625 -29.203125 C 38.140625 -29.222656 38.140625 -29.25 38.140625 -29.28125 Z M 39.09375 -2.15625 C 39.300781 -1.882812 39.367188 -1.484375 39.296875 -0.953125 C 39.203125 -0.285156 38.816406 0.046875 38.140625 0.046875 L 32.640625 0.046875 C 32.203125 0.046875 31.851562 -0.0507812 31.59375 -0.25 C 31.488281 -0.3125 31.394531 -0.410156 31.3125 -0.546875 C 31.226562 -0.679688 31.132812 -0.816406 31.03125 -0.953125 L 21.984375 -17.015625 L 11.421875 -17.015625 L 11.421875 -1.703125 C 11.421875 -0.929688 11.242188 -0.445312 10.890625 -0.25 C 10.535156 -0.0507812 10.242188 0.046875 10.015625 0.046875 L 5.453125 0.046875 C 5.222656 0.046875 4.921875 -0.0507812 4.546875 -0.25 C 4.179688 -0.445312 4 -0.929688 4 -1.703125 L 4 -22.734375 C 4 -23.492188 4.179688 -23.96875 4.546875 -24.15625 C 4.921875 -24.34375 5.222656 -24.4375 5.453125 -24.4375 L 27.234375 -24.4375 C 28.503906 -24.4375 29.390625 -24.800781 29.890625 -25.53125 C 30.421875 -26.269531 30.6875 -27.472656 30.6875 -29.140625 C 30.6875 -30.804688 30.421875 -32.003906 29.890625 -32.734375 C 29.390625 -33.472656 28.503906 -33.84375 27.234375 -33.84375 L 5.453125 -33.84375 C 5.222656 -33.84375 4.921875 -33.929688 4.546875 -34.109375 C 4.179688 -34.296875 4 -34.773438 4 -35.546875 L 4 -39.5 C 4 -40.300781 4.179688 -40.789062 4.546875 -40.96875 C 4.921875 -41.15625 5.222656 -41.25 5.453125 -41.25 L 28.53125 -41.25 C 31.96875 -41.25 34.4375 -40.179688 35.9375 -38.046875 C 37.375 -35.972656 38.109375 -33.003906 38.140625 -29.140625 C 38.109375 -25.265625 37.375 -22.289062 35.9375 -20.21875 C 34.675781 -18.488281 32.8125 -17.472656 30.34375 -17.171875 Z M 39.09375 -2.15625 "/></g></g></g><g clip-path="url(#a8df70dfc9)"><g clip-path="url(#4c2230da04)"><g clip-path="url(#b5779d9e95)"><path fill="#f41212" d="M 122.898438 48.6875 L 93.917969 48.75 L 99.875 59.015625 L 139.261719 58.929688 L 111.734375 11.496094 L 103.941406 16.019531 L 122.898438 48.6875 " fill-opacity="1" fill-rule="nonzero"/></g></g></g><g clip-path="url(#4c71b1aede)"><g clip-path="url(#672fe04444)"><g clip-path="url(#2117472e94)"><path fill="#009f0b" d="M 63.925781 31.046875 L 91.453125 78.480469 L 99.246094 73.957031 L 80.289062 41.289062 L 109.269531 41.226562 L 103.3125 30.960938 L 63.925781 31.046875 " fill-opacity="1" fill-rule="nonzero"/></g></g></g><path stroke-linecap="butt" transform="matrix(0.708646, 0, 0, 0.708646, 193.881349, 10.933593)" fill="none" stroke-linejoin="miter" d="M 46.498077 18.168448 L 46.498077 25.610015 L 19.93444 25.610015 L 19.93444 44.009979 L 43.212763 44.009979 L 43.212763 51.451546 L 19.93444 51.451546 L 19.93444 75.997692 L 12.178673 75.997692 L 12.178673 18.168448 Z M 46.498077 18.168448 " stroke="#ffffff" stroke-width="1.600002" stroke-opacity="1" stroke-miterlimit="4"/><path stroke-linecap="butt" transform="matrix(0.708646, 0, 0, 0.708646, 193.881349, 10.933593)" fill="none" stroke-linejoin="miter" d="M 165.072556 28.481909 C 162.988918 27.362918 160.772984 26.453393 158.430269 25.764359 C 156.087553 25.0643 153.87162 24.711515 151.787981 24.711515 C 148.640474 24.711515 146.143415 25.422598 144.307828 26.839252 C 142.472242 28.261418 141.557205 30.190713 141.557205 32.638162 C 141.557205 35.036 142.626585 36.998369 144.776371 38.519756 C 146.937182 40.041143 150.024054 41.545993 154.036988 43.028794 C 157.019127 44.098175 159.527211 45.266777 161.572264 46.529087 C 163.633853 47.77486 165.337145 49.511226 166.693164 51.721647 C 168.060208 53.93758 168.743729 56.748839 168.743729 60.160935 C 168.743729 63.258832 167.966499 66.064578 166.417551 68.578174 C 164.879627 71.080746 162.68023 73.048627 159.813849 74.498354 C 156.964004 75.926032 153.623568 76.642628 149.798051 76.642628 C 146.215074 76.642628 142.769905 76.069352 139.462541 74.928311 C 136.155178 73.781759 133.255723 72.321007 130.753152 70.551567 L 134.19281 64.399872 C 136.155178 65.893698 138.525455 67.167033 141.298128 68.208852 C 144.076313 69.250671 146.667081 69.768825 149.075943 69.768825 C 152.162816 69.768825 154.863829 68.969545 157.178983 67.365474 C 159.510674 65.766916 160.673763 63.391126 160.673763 60.238107 C 160.673763 57.570167 159.698091 55.453455 157.746747 53.88797 C 155.806427 52.316972 153.072341 50.828659 149.544487 49.439566 C 146.286734 48.215842 143.580208 47.014167 141.419398 45.845565 C 139.269612 44.671451 137.423001 43.056356 135.86854 41.000278 C 134.319592 38.944201 133.547874 36.36997 133.547874 33.283098 C 133.547874 28.75201 135.129896 25.08635 138.29394 22.291628 C 141.469008 19.491394 145.5977 18.00308 150.674502 17.837712 C 156.914394 17.837712 162.696767 19.386661 168.021622 22.484557 Z M 211.629204 28.481909 C 209.545565 27.362918 207.335144 26.453393 204.986916 25.764359 C 202.644201 25.0643 200.43378 24.711515 198.350141 24.711515 C 195.197122 24.711515 192.705575 25.422598 190.869988 26.839252 C 189.034402 28.261418 188.113852 30.190713 188.113852 32.638162 C 188.113852 35.036 189.188745 36.998369 191.338531 38.519756 C 193.499342 40.041143 196.586214 41.545993 200.593636 43.028794 C 203.575775 44.098175 206.089371 45.266777 208.134424 46.529087 C 210.190501 47.77486 211.899305 49.511226 213.249812 51.721647 C 214.616855 53.93758 215.300377 56.748839 215.300377 60.160935 C 215.300377 63.258832 214.528659 66.064578 212.979711 68.578174 C 211.441787 71.080746 209.24239 73.048627 206.376009 74.498354 C 203.526164 75.926032 200.185728 76.642628 196.354699 76.642628 C 192.777234 76.642628 189.332065 76.069352 186.024701 74.928311 C 182.717338 73.781759 179.812371 72.321007 177.315312 70.551567 L 180.749457 64.399872 C 182.717338 65.893698 185.087615 67.167033 187.860288 68.208852 C 190.632961 69.250671 193.223728 69.768825 195.632591 69.768825 C 198.719463 69.768825 201.420477 68.969545 203.741143 67.365474 C 206.072834 65.766916 207.235923 63.391126 207.235923 60.238107 C 207.235923 57.570167 206.260251 55.453455 204.303395 53.88797 C 202.368587 52.316972 199.628988 50.828659 196.101134 49.439566 C 192.848894 48.215842 190.136856 47.014167 187.976046 45.845565 C 185.831772 44.671451 183.979649 43.056356 182.4307 41.000278 C 180.881752 38.944201 180.104521 36.36997 180.104521 33.283098 C 180.104521 28.75201 181.686544 25.08635 184.850588 22.291628 C 188.031168 19.491394 192.15986 18.00308 197.236662 17.837712 C 203.471042 17.837712 209.253415 19.386661 214.578269 22.484557 Z M 211.629204 28.481909 " stroke="#ffffff" stroke-width="1.600002" stroke-opacity="1" stroke-miterlimit="4"/><g fill="#ffffff" fill-opacity="1"><g transform="translate(196.61628, 64.790698)"><g><path d="M 30.21875 -40.984375 L 30.21875 -35.71875 L 11.390625 -35.71875 L 11.390625 -22.671875 L 27.890625 -22.671875 L 27.890625 -17.40625 L 11.390625 -17.40625 L 11.390625 0 L 5.890625 0 L 5.890625 -40.984375 Z M 30.21875 -40.984375 "/></g></g></g><g fill="#ffffff" fill-opacity="1"><g transform="translate(230.011229, 64.790698)"><g/></g></g><g fill="#ffffff" fill-opacity="1"><g transform="translate(247.925791, 64.790698)"><g/></g></g><g fill="#ffffff" fill-opacity="1"><g transform="translate(265.840353, 64.790698)"><g/></g></g><g fill="#ffffff" fill-opacity="1"><g transform="translate(283.757607, 64.790698)"><g><path d="M 27.09375 -33.671875 C 25.625 -34.460938 24.054688 -35.101562 22.390625 -35.59375 C 20.722656 -36.09375 19.15625 -36.34375 17.6875 -36.34375 C 15.457031 -36.34375 13.691406 -35.835938 12.390625 -34.828125 C 11.085938 -33.828125 10.4375 -32.457031 10.4375 -30.71875 C 10.4375 -29.019531 11.195312 -27.628906 12.71875 -26.546875 C 14.25 -25.472656 16.4375 -24.410156 19.28125 -23.359375 C 21.394531 -22.597656 23.175781 -21.773438 24.625 -20.890625 C 26.082031 -20.003906 27.289062 -18.773438 28.25 -17.203125 C 29.21875 -15.640625 29.703125 -13.644531 29.703125 -11.21875 C 29.703125 -9.03125 29.15625 -7.046875 28.0625 -5.265625 C 26.96875 -3.492188 25.40625 -2.097656 23.375 -1.078125 C 21.351562 -0.0546875 18.984375 0.453125 16.265625 0.453125 C 13.734375 0.453125 11.296875 0.046875 8.953125 -0.765625 C 6.609375 -1.578125 4.550781 -2.609375 2.78125 -3.859375 L 5.21875 -8.21875 C 6.613281 -7.15625 8.289062 -6.253906 10.25 -5.515625 C 12.21875 -4.785156 14.054688 -4.421875 15.765625 -4.421875 C 17.953125 -4.421875 19.867188 -4.988281 21.515625 -6.125 C 23.160156 -7.257812 23.984375 -8.941406 23.984375 -11.171875 C 23.984375 -13.054688 23.289062 -14.554688 21.90625 -15.671875 C 20.53125 -16.785156 18.59375 -17.832031 16.09375 -18.8125 C 13.789062 -19.6875 11.875 -20.539062 10.34375 -21.375 C 8.8125 -22.207031 7.5 -23.347656 6.40625 -24.796875 C 5.3125 -26.253906 4.765625 -28.078125 4.765625 -30.265625 C 4.765625 -33.484375 5.882812 -36.082031 8.125 -38.0625 C 10.375 -40.050781 13.296875 -41.101562 16.890625 -41.21875 C 21.316406 -41.21875 25.414062 -40.117188 29.1875 -37.921875 Z M 27.09375 -33.671875 "/></g></g></g><g fill="#ffffff" fill-opacity="1"><g transform="translate(316.752136, 64.790698)"><g><path d="M 27.09375 -33.671875 C 25.625 -34.460938 24.054688 -35.101562 22.390625 -35.59375 C 20.722656 -36.09375 19.15625 -36.34375 17.6875 -36.34375 C 15.457031 -36.34375 13.691406 -35.835938 12.390625 -34.828125 C 11.085938 -33.828125 10.4375 -32.457031 10.4375 -30.71875 C 10.4375 -29.019531 11.195312 -27.628906 12.71875 -26.546875 C 14.25 -25.472656 16.4375 -24.410156 19.28125 -23.359375 C 21.394531 -22.597656 23.175781 -21.773438 24.625 -20.890625 C 26.082031 -20.003906 27.289062 -18.773438 28.25 -17.203125 C 29.21875 -15.640625 29.703125 -13.644531 29.703125 -11.21875 C 29.703125 -9.03125 29.15625 -7.046875 28.0625 -5.265625 C 26.96875 -3.492188 25.40625 -2.097656 23.375 -1.078125 C 21.351562 -0.0546875 18.984375 0.453125 16.265625 0.453125 C 13.734375 0.453125 11.296875 0.046875 8.953125 -0.765625 C 6.609375 -1.578125 4.550781 -2.609375 2.78125 -3.859375 L 5.21875 -8.21875 C 6.613281 -7.15625 8.289062 -6.253906 10.25 -5.515625 C 12.21875 -4.785156 14.054688 -4.421875 15.765625 -4.421875 C 17.953125 -4.421875 19.867188 -4.988281 21.515625 -6.125 C 23.160156 -7.257812 23.984375 -8.941406 23.984375 -11.171875 C 23.984375 -13.054688 23.289062 -14.554688 21.90625 -15.671875 C 20.53125 -16.785156 18.59375 -17.832031 16.09375 -18.8125 C 13.789062 -19.6875 11.875 -20.539062 10.34375 -21.375 C 8.8125 -22.207031 7.5 -23.347656 6.40625 -24.796875 C 5.3125 -26.253906 4.765625 -28.078125 4.765625 -30.265625 C 4.765625 -33.484375 5.882812 -36.082031 8.125 -38.0625 C 10.375 -40.050781 13.296875 -41.101562 16.890625 -41.21875 C 21.316406 -41.21875 25.414062 -40.117188 29.1875 -37.921875 Z M 27.09375 -33.671875 "/></g></g></g><g clip-path="url(#a40b49bc44)"><path fill="#ffffff" d="M 256.617188 21.027344 C 269.453125 21.027344 279.859375 31.433594 279.859375 44.269531 C 279.859375 54.925781 272.6875 63.902344 262.90625 66.648438 L 260.707031 58.824219 L 258.5625 51.1875 C 261.585938 50.339844 263.800781 47.5625 263.800781 44.269531 C 263.800781 40.300781 260.585938 37.085938 256.617188 37.085938 C 252.648438 37.085938 249.433594 40.300781 249.433594 44.269531 C 249.433594 47.5625 251.648438 50.339844 254.671875 51.1875 L 252.523438 58.824219 L 250.324219 66.648438 C 240.546875 63.902344 233.375 54.925781 233.375 44.269531 C 233.375 31.433594 243.78125 21.027344 256.617188 21.027344 Z M 256.617188 21.027344 " fill-opacity="1" fill-rule="evenodd"/></g></svg>